<svg width="43" height="45" viewBox="0 0 43 45" fill="none" xmlns="http://www.w3.org/2000/svg">
<g clip-path="url(#clip0_81_105)">
<path d="M14.2898 8.97656H6.59637C5.88437 8.97656 5.30731 9.55362 5.30731 10.2656C5.30731 10.9776 5.88437 11.5547 6.59637 11.5547H14.2898C15.0015 11.5547 15.5789 10.9776 15.5789 10.2656C15.5789 9.55362 15.0015 8.97656 14.2898 8.97656Z" fill="white"/>
<path d="M14.2898 14.1332H6.59637C5.88437 14.1332 5.30731 14.7102 5.30731 15.4222C5.30731 16.1342 5.88437 16.7113 6.59637 16.7113H14.2898C15.0015 16.7113 15.5789 16.1342 15.5789 15.4222C15.5789 14.7102 15.0015 14.1332 14.2898 14.1332Z" fill="white"/>
<path d="M14.2898 19.2898H6.59637C5.88437 19.2898 5.30731 19.8669 5.30731 20.5789C5.30731 21.2909 5.88437 21.8679 6.59637 21.8679H14.2898C15.0015 21.8679 15.5789 21.2909 15.5789 20.5789C15.5789 19.8669 15.0015 19.2898 14.2898 19.2898Z" fill="white"/>
<path d="M14.2898 24.4464H6.59637C5.88437 24.4464 5.30731 25.0235 5.30731 25.7355C5.30731 26.4475 5.88437 27.0245 6.59637 27.0245H14.2898C15.0015 27.0245 15.5789 26.4475 15.5789 25.7355C15.5789 25.0235 15.0015 24.4464 14.2898 24.4464Z" fill="white"/>
<path d="M14.2898 29.6892H6.59637C5.88437 29.6892 5.30731 30.2666 5.30731 30.9783C5.30731 31.6903 5.88437 32.2673 6.59637 32.2673H14.2898C15.0015 32.2673 15.5789 31.6903 15.5789 30.9783C15.5789 30.2666 15.0015 29.6892 14.2898 29.6892Z" fill="white"/>
<path d="M18.6189 11.5547H26.3123C27.0243 11.5547 27.6014 10.9776 27.6014 10.2656C27.6014 9.55362 27.0243 8.97656 26.3123 8.97656H18.6189C17.9072 8.97656 17.3298 9.55362 17.3298 10.2656C17.3298 10.9776 17.9072 11.5547 18.6189 11.5547Z" fill="white"/>
<path d="M18.6189 16.7113H26.3123C27.0243 16.7113 27.6014 16.1342 27.6014 15.4222C27.6014 14.7102 27.0243 14.1332 26.3123 14.1332H18.6189C17.9072 14.1332 17.3298 14.7102 17.3298 15.4222C17.3298 16.1342 17.9072 16.7113 18.6189 16.7113Z" fill="white"/>
<path d="M23.6133 20.5789C23.6133 19.8669 23.0363 19.2898 22.3243 19.2898H18.6189C17.9072 19.2898 17.3298 19.8669 17.3298 20.5789C17.3298 21.2909 17.9072 21.8679 18.6189 21.8679H22.3243C23.0363 21.8679 23.6133 21.2909 23.6133 20.5789Z" fill="white"/>
<path d="M35.8249 30.2333C35.2697 29.7879 34.4586 29.8768 34.0128 30.4321L30.6928 34.5712L28.6374 33.082C28.061 32.6641 27.2546 32.793 26.837 33.3694C26.4194 33.9461 26.5483 34.7521 27.1247 35.1697L30.1738 37.3789C30.4021 37.5441 30.6666 37.6243 30.9295 37.6243C31.3078 37.6243 31.6818 37.4581 31.9356 37.1416L36.024 32.0454C36.4694 31.4902 36.3805 30.6788 35.8249 30.2333Z" fill="white"/>
<path d="M39.0831 26.2762C37.404 24.5675 35.2465 23.4906 32.9087 23.1734V5.6915C32.9087 2.82904 30.5797 0.5 27.7172 0.5H5.19183C2.32904 0.5 0 2.82904 0 5.6915V35.5524C0 38.4152 2.32904 40.7443 5.1915 40.7443H23.3085C25.3472 43.1391 28.2785 44.5 31.4498 44.5C37.3529 44.5 42.1554 39.6942 42.1554 33.787C42.1554 30.9591 41.0644 28.2917 39.0831 26.2762ZM2.57812 35.5524V5.6915C2.57812 4.2507 3.7507 3.07812 5.19183 3.07812H27.7172C29.1583 3.07812 30.3306 4.2507 30.3306 5.6915V23.1324C24.9514 23.6941 20.7442 28.2578 20.7442 33.787C20.7442 35.3195 21.0638 36.8012 21.6767 38.1658H5.19183C3.7507 38.1658 2.57812 36.9936 2.57812 35.5524ZM31.4498 41.9219C28.8753 41.9219 26.5087 40.7399 24.9561 38.6794C23.8873 37.2604 23.322 35.5689 23.322 33.787C23.322 29.3015 26.9683 25.6522 31.4498 25.6522C31.4921 25.6522 31.5347 25.6528 31.577 25.6535L31.5968 25.6538C33.7362 25.6918 35.7419 26.5545 37.2445 28.0833C38.7487 29.6137 39.5772 31.6396 39.5772 33.787C39.5772 38.2726 35.9313 41.9219 31.4498 41.9219Z" fill="white"/>
</g>
<defs>
<clipPath id="clip0_81_105">
<rect width="42.1953" height="44" fill="white" transform="translate(0 0.5)"/>
</clipPath>
</defs>
</svg>
