<svg width="48" height="48" viewBox="0 0 48 48" fill="none" xmlns="http://www.w3.org/2000/svg">
<g clip-path="url(#clip0_62_553)">
<path d="M10.3871 42.4517H6.83871C6.65049 42.4517 6.46998 42.5264 6.33689 42.6595C6.2038 42.7926 6.12903 42.9731 6.12903 43.1613C6.12903 43.3496 6.2038 43.5301 6.33689 43.6632C6.46998 43.7962 6.65049 43.871 6.83871 43.871H10.3871C10.5753 43.871 10.7558 43.7962 10.8889 43.6632C11.022 43.5301 11.0968 43.3496 11.0968 43.1613C11.0968 42.9731 11.022 42.7926 10.8889 42.6595C10.7558 42.5264 10.5753 42.4517 10.3871 42.4517Z" fill="#D0A144"/>
<path d="M13.2258 42.4517H12.5161C12.3279 42.4517 12.1474 42.5264 12.0143 42.6595C11.8812 42.7926 11.8065 42.9731 11.8065 43.1613C11.8065 43.3496 11.8812 43.5301 12.0143 43.6632C12.1474 43.7962 12.3279 43.871 12.5161 43.871H13.2258C13.414 43.871 13.5945 43.7962 13.7276 43.6632C13.8607 43.5301 13.9355 43.3496 13.9355 43.1613C13.9355 42.9731 13.8607 42.7926 13.7276 42.6595C13.5945 42.5264 13.414 42.4517 13.2258 42.4517Z" fill="#D0A144"/>
<path d="M8.25808 14.7742H30.9678C31.156 14.7742 31.3365 14.6994 31.4696 14.5663C31.6027 14.4332 31.6774 14.2527 31.6774 14.0645V11.2258C31.6774 11.0376 31.6027 10.8571 31.4696 10.724C31.3365 10.5909 31.156 10.5161 30.9678 10.5161H8.25808C8.06986 10.5161 7.88935 10.5909 7.75626 10.724C7.62317 10.8571 7.5484 11.0376 7.5484 11.2258V14.0645C7.5484 14.2527 7.62317 14.4332 7.75626 14.5663C7.88935 14.6994 8.06986 14.7742 8.25808 14.7742ZM8.96776 11.9355H30.2581V13.3548H8.96776V11.9355Z" fill="#D0A144"/>
<path d="M8.25808 20.4517H30.9678C31.156 20.4517 31.3365 20.3769 31.4696 20.2438C31.6027 20.1107 31.6774 19.9302 31.6774 19.742V16.9033C31.6774 16.7151 31.6027 16.5346 31.4696 16.4015C31.3365 16.2684 31.156 16.1936 30.9678 16.1936H8.25808C8.06986 16.1936 7.88935 16.2684 7.75626 16.4015C7.62317 16.5346 7.5484 16.7151 7.5484 16.9033V19.742C7.5484 19.9302 7.62317 20.1107 7.75626 20.2438C7.88935 20.3769 8.06986 20.4517 8.25808 20.4517ZM8.96776 17.613H30.2581V19.0323H8.96776V17.613Z" fill="#D0A144"/>
<path d="M8.25808 26.1292H30.9678C31.156 26.1292 31.3365 26.0544 31.4696 25.9213C31.6027 25.7882 31.6774 25.6077 31.6774 25.4195V22.5808C31.6774 22.3926 31.6027 22.212 31.4696 22.079C31.3365 21.9459 31.156 21.8711 30.9678 21.8711H8.25808C8.06986 21.8711 7.88935 21.9459 7.75626 22.079C7.62317 22.212 7.5484 22.3926 7.5484 22.5808V25.4195C7.5484 25.6077 7.62317 25.7882 7.75626 25.9213C7.88935 26.0544 8.06986 26.1292 8.25808 26.1292ZM8.96776 23.2904H30.2581V24.7098H8.96776V23.2904Z" fill="#D0A144"/>
<path d="M21.742 27.5483H8.25808C8.06986 27.5483 7.88935 27.6231 7.75626 27.7562C7.62317 27.8893 7.5484 28.0698 7.5484 28.258C7.5484 28.4462 7.62317 28.6267 7.75626 28.7598C7.88935 28.8929 8.06986 28.9677 8.25808 28.9677H21.742C21.9302 28.9677 22.1107 28.8929 22.2438 28.7598C22.3769 28.6267 22.4516 28.4462 22.4516 28.258C22.4516 28.0698 22.3769 27.8893 22.2438 27.7562C22.1107 27.6231 21.9302 27.5483 21.742 27.5483Z" fill="#D0A144"/>
<path d="M17.4839 29.6775H8.25808C8.06986 29.6775 7.88935 29.7523 7.75626 29.8853C7.62317 30.0184 7.5484 30.1989 7.5484 30.3872C7.5484 30.5754 7.62317 30.7559 7.75626 30.889C7.88935 31.0221 8.06986 31.0968 8.25808 31.0968H17.4839C17.6721 31.0968 17.8526 31.0221 17.9857 30.889C18.1188 30.7559 18.1936 30.5754 18.1936 30.3872C18.1936 30.1989 18.1188 30.0184 17.9857 29.8853C17.8526 29.7523 17.6721 29.6775 17.4839 29.6775Z" fill="#D0A144"/>
<path d="M9.67743 33.2257C9.86565 33.2257 10.0462 33.151 10.1793 33.0179C10.3123 32.8848 10.3871 32.7043 10.3871 32.5161C10.3871 32.3279 10.3123 32.1473 10.1793 32.0143C10.0462 31.8812 9.86565 31.8064 9.67743 31.8064H8.25808C8.06986 31.8064 7.88935 31.8812 7.75626 32.0143C7.62317 32.1473 7.5484 32.3279 7.5484 32.5161C7.5484 32.7043 7.62317 32.8848 7.75626 33.0179C7.88935 33.151 8.06986 33.2257 8.25808 33.2257H9.67743Z" fill="#D0A144"/>
<path d="M12.5162 33.2257C12.7044 33.2257 12.8849 33.151 13.018 33.0179C13.1511 32.8848 13.2258 32.7043 13.2258 32.5161C13.2258 32.3279 13.1511 32.1473 13.018 32.0143C12.8849 31.8812 12.7044 31.8064 12.5162 31.8064H11.8065C11.6183 31.8064 11.4378 31.8812 11.3047 32.0143C11.1716 32.1473 11.0968 32.3279 11.0968 32.5161C11.0968 32.7043 11.1716 32.8848 11.3047 33.0179C11.4378 33.151 11.6183 33.2257 11.8065 33.2257H12.5162Z" fill="#D0A144"/>
<path d="M43.0323 35.3548C43.0296 33.2199 42.2262 31.1635 40.7808 29.5922C39.3354 28.0209 37.3531 27.049 35.2258 26.8685V8.3871C35.2258 8.2939 35.2075 8.20161 35.1718 8.11551C35.1361 8.0294 35.0839 7.95117 35.018 7.88527L29.3405 2.20785C29.2746 2.14195 29.1964 2.08967 29.1103 2.05401C29.0242 2.01835 28.9319 2 28.8387 2H4.70968C4.52146 2 4.34095 2.07477 4.20786 2.20786C4.07477 2.34095 4 2.52146 4 2.70968V45.2903C4 45.4785 4.07477 45.659 4.20786 45.7921C4.34095 45.9252 4.52146 46 4.70968 46H34.5161C34.7043 46 34.8849 45.9252 35.0179 45.7921C35.151 45.659 35.2258 45.4785 35.2258 45.2903V43.8412C37.3531 43.6607 39.3354 42.6887 40.7808 41.1174C42.2262 39.5461 43.0296 37.4898 43.0323 35.3548ZM29.5484 4.42293L32.8029 7.67742H29.5484V4.42293ZM5.41935 44.5806V3.41935H28.129V8.3871C28.129 8.57531 28.2038 8.75582 28.3369 8.88891C28.47 9.022 28.6505 9.09677 28.8387 9.09677H33.8065V26.8685C31.6785 27.047 29.6953 28.0184 28.2499 29.5902C26.8044 31.162 26.0022 33.2195 26.0022 35.3548C26.0022 37.4902 26.8044 39.5477 28.2499 41.1195C29.6953 42.6913 31.6785 43.6627 33.8065 43.8412V44.5806H5.41935ZM34.5161 42.4516C33.1125 42.4516 31.7404 42.0354 30.5734 41.2556C29.4063 40.4758 28.4967 39.3674 27.9596 38.0707C27.4224 36.7739 27.2819 35.347 27.5557 33.9703C27.8295 32.5937 28.5055 31.3292 29.498 30.3367C30.4905 29.3442 31.755 28.6683 33.1316 28.3944C34.5083 28.1206 35.9352 28.2611 37.2319 28.7983C38.5287 29.3354 39.6371 30.245 40.4169 31.4121C41.1967 32.5791 41.6129 33.9512 41.6129 35.3548C41.6108 37.2364 40.8624 39.0402 39.5319 40.3707C38.2015 41.7011 36.3977 42.4495 34.5161 42.4516Z" fill="#D0A144"/>
<path d="M39.9857 32.724C39.9198 32.6581 39.8416 32.6058 39.7555 32.5701C39.6694 32.5345 39.5771 32.5161 39.4839 32.5161C39.3907 32.5161 39.2984 32.5345 39.2123 32.5701C39.1262 32.6058 39.0479 32.6581 38.982 32.724L34.4061 37.2999L31.3329 35.456C31.253 35.408 31.1644 35.3763 31.0722 35.3626C30.98 35.3489 30.886 35.3534 30.7956 35.376C30.7052 35.3986 30.6201 35.4388 30.5452 35.4943C30.4704 35.5498 30.4071 35.6195 30.3592 35.6994C30.3112 35.7793 30.2795 35.8679 30.2658 35.9601C30.2521 36.0523 30.2566 36.1462 30.2792 36.2367C30.3018 36.3271 30.342 36.4122 30.3975 36.487C30.453 36.5619 30.5227 36.6251 30.6026 36.6731L34.151 38.8021C34.2867 38.8836 34.4457 38.9174 34.6028 38.8981C34.7599 38.8788 34.906 38.8075 35.018 38.6957L39.9857 33.7279C40.0516 33.662 40.104 33.5838 40.1396 33.4976C40.1753 33.4115 40.1937 33.3192 40.1937 33.226C40.1937 33.1327 40.1753 33.0404 40.1396 32.9543C40.104 32.8681 40.0516 32.7899 39.9857 32.724Z" fill="#D0A144"/>
</g>
<defs>
<clipPath id="clip0_62_553">
<rect width="39.0323" height="44" fill="white" transform="translate(4 2)"/>
</clipPath>
</defs>
</svg>
