<svg width="48" height="48" viewBox="0 0 48 48" fill="none" xmlns="http://www.w3.org/2000/svg">
<path d="M26.0337 39.5469H21.9664C21.7851 39.5469 21.6113 39.4747 21.4832 39.3462C21.355 39.2177 21.283 39.0434 21.283 38.8617V5.76686C21.283 5.04431 21.5693 4.35135 22.0788 3.84043C22.5884 3.32951 23.2794 3.04248 24 3.04248C24.7206 3.04248 25.4117 3.32951 25.9212 3.84043C26.4308 4.35135 26.717 5.04431 26.717 5.76686V38.8624C26.7169 39.044 26.6448 39.2181 26.5166 39.3464C26.3885 39.4748 26.2148 39.5469 26.0337 39.5469ZM22.6497 38.1765H25.3503V5.76686C25.3503 5.40777 25.2081 5.06338 24.9548 4.80946C24.7016 4.55554 24.3581 4.41289 24 4.41289C23.6419 4.41289 23.2984 4.55554 23.0452 4.80946C22.792 5.06338 22.6497 5.40777 22.6497 5.76686V38.1765Z" fill="#D0A144"/>
<path d="M7.53125 12.2284H5.18531C4.62871 12.2184 4.09829 11.9897 3.7082 11.5914C3.31811 11.1932 3.09955 10.6573 3.09955 10.0991C3.09955 9.54093 3.31811 9.00505 3.7082 8.60682C4.09829 8.2086 4.62871 7.97986 5.18531 7.96985H7.19845C7.37969 7.96985 7.5535 8.04204 7.68166 8.17054C7.80981 8.29904 7.8818 8.47333 7.8818 8.65506C7.8818 8.83678 7.80981 9.01107 7.68166 9.13957C7.5535 9.26807 7.37969 9.34026 7.19845 9.34026H5.18531C4.98852 9.34619 4.80178 9.42874 4.66468 9.57041C4.52758 9.71208 4.4509 9.90172 4.4509 10.0991C4.4509 10.2965 4.52758 10.4862 4.66468 10.6278C4.80178 10.7695 4.98852 10.8521 5.18531 10.858H7.53125C7.71248 10.858 7.88629 10.9302 8.01445 11.0587C8.1426 11.1872 8.2146 11.3615 8.2146 11.5432C8.2146 11.7249 8.1426 11.8992 8.01445 12.0277C7.88629 12.1562 7.71248 12.2284 7.53125 12.2284Z" fill="#D0A144"/>
<path d="M21.9664 12.2284H11.6649C11.4836 12.2284 11.3098 12.1562 11.1817 12.0277C11.0535 11.8992 10.9815 11.7249 10.9815 11.5432C10.9815 11.3615 11.0535 11.1872 11.1817 11.0587C11.3098 10.9302 11.4836 10.858 11.6649 10.858H21.283V9.34026H11.997C11.8157 9.34026 11.6419 9.26807 11.5138 9.13957C11.3856 9.01107 11.3136 8.83678 11.3136 8.65506C11.3136 8.47333 11.3856 8.29904 11.5138 8.17054C11.6419 8.04204 11.8157 7.96985 11.997 7.96985H21.9664C22.1476 7.96985 22.3214 8.04204 22.4496 8.17054C22.5777 8.29904 22.6497 8.47333 22.6497 8.65506V11.5432C22.6497 11.7249 22.5777 11.8992 22.4496 12.0277C22.3214 12.1562 22.1476 12.2284 21.9664 12.2284Z" fill="#D0A144"/>
<path d="M36.1862 12.2284H26.0337C25.8525 12.2284 25.6786 12.1562 25.5505 12.0277C25.4223 11.8992 25.3503 11.7249 25.3503 11.5432V8.65506C25.3503 8.47333 25.4223 8.29904 25.5505 8.17054C25.6786 8.04204 25.8525 7.96985 26.0337 7.96985H35.8541C36.0354 7.96985 36.2092 8.04204 36.3373 8.17054C36.4655 8.29904 36.5375 8.47333 36.5375 8.65506C36.5375 8.83678 36.4655 9.01107 36.3373 9.13957C36.2092 9.26807 36.0354 9.34026 35.8541 9.34026H26.717V10.858H36.1862C36.3675 10.858 36.5413 10.9302 36.6694 11.0587C36.7976 11.1872 36.8696 11.3615 36.8696 11.5432C36.8696 11.7249 36.7976 11.8992 36.6694 12.0277C36.5413 12.1562 36.3675 12.2284 36.1862 12.2284Z" fill="#D0A144"/>
<path d="M42.8079 12.2284H40.4688C40.2875 12.2284 40.1137 12.1562 39.9856 12.0277C39.8574 11.8992 39.7854 11.7249 39.7854 11.5432C39.7854 11.3615 39.8574 11.1872 39.9856 11.0587C40.1137 10.9302 40.2875 10.858 40.4688 10.858H42.8079C43.0046 10.8521 43.1914 10.7695 43.3285 10.6278C43.4656 10.4862 43.5423 10.2965 43.5423 10.0991C43.5423 9.90172 43.4656 9.71208 43.3285 9.57041C43.1914 9.42874 43.0046 9.34619 42.8079 9.34026H40.8056C40.6244 9.34026 40.4506 9.26807 40.3224 9.13957C40.1943 9.01107 40.1223 8.83678 40.1223 8.65506C40.1223 8.47333 40.1943 8.29904 40.3224 8.17054C40.4506 8.04204 40.6244 7.96985 40.8056 7.96985H42.8079C43.3645 7.97986 43.8949 8.2086 44.285 8.60682C44.6751 9.00505 44.8936 9.54093 44.8936 10.0991C44.8936 10.6573 44.6751 11.1932 44.285 11.5914C43.8949 11.9897 43.3645 12.2184 42.8079 12.2284Z" fill="#D0A144"/>
<path d="M32.6547 43.9569H15.3454C15.2417 43.9569 15.1393 43.9331 15.0461 43.8875C14.9529 43.8419 14.8712 43.7756 14.8074 43.6937C14.7435 43.6117 14.6991 43.5163 14.6774 43.4146C14.6558 43.3128 14.6576 43.2075 14.6826 43.1066C14.9643 41.7515 15.6899 40.5298 16.7439 39.6358C17.7979 38.7418 19.1198 38.227 20.4992 38.1731H27.5008C28.8803 38.227 30.2022 38.7418 31.2562 39.6358C32.3102 40.5298 33.0357 41.7515 33.3175 43.1066C33.3425 43.2075 33.3443 43.3128 33.3226 43.4146C33.301 43.5163 33.2566 43.6117 33.1927 43.6937C33.1288 43.7756 33.0472 43.8419 32.954 43.8875C32.8607 43.9331 32.7584 43.9569 32.6547 43.9569ZM16.2905 42.5865H31.7096C31.3843 41.7207 30.8114 40.9705 30.0627 40.4298C29.314 39.8891 28.4228 39.582 27.5008 39.5469H20.4992C19.5772 39.582 18.686 39.8891 17.9373 40.4298C17.1886 40.9705 16.6158 41.7207 16.2905 42.5865Z" fill="#D0A144"/>
<path d="M34.5051 43.9568H13.4949C13.3136 43.9568 13.1398 43.8846 13.0117 43.7561C12.8835 43.6276 12.8115 43.4534 12.8115 43.2716C12.8115 43.0899 12.8835 42.9156 13.0117 42.7871C13.1398 42.6586 13.3136 42.5864 13.4949 42.5864H34.5051C34.6864 42.5864 34.8602 42.6586 34.9883 42.7871C35.1165 42.9156 35.1885 43.0899 35.1885 43.2716C35.1885 43.4534 35.1165 43.6276 34.9883 43.7561C34.8602 43.8846 34.6864 43.9568 34.5051 43.9568Z" fill="#D0A144"/>
<path d="M47.2339 29.4092H29.5754C29.4611 29.4093 29.3485 29.3805 29.248 29.3257C29.1476 29.2708 29.0625 29.1915 29.0005 29.0951C28.9385 28.9987 28.9017 28.8882 28.8934 28.7738C28.8851 28.6594 28.9056 28.5447 28.9529 28.4403L36.4561 11.8761C36.493 11.7939 36.5458 11.7199 36.6113 11.6582C36.6769 11.5965 36.7539 11.5484 36.838 11.5166C36.9222 11.4848 37.0117 11.4699 37.1015 11.4729C37.1914 11.4759 37.2798 11.4966 37.3616 11.5339C37.4435 11.5711 37.5172 11.6242 37.5785 11.6901C37.6399 11.756 37.6877 11.8334 37.7192 11.9178C37.7506 12.0022 37.7652 12.0921 37.762 12.1822C37.7588 12.2722 37.7379 12.3608 37.7005 12.4428L30.636 28.0388H46.1706L39.1123 12.4428C39.0752 12.3608 39.0546 12.2723 39.0517 12.1824C39.0487 12.0924 39.0635 12.0027 39.0951 11.9185C39.1267 11.8343 39.1745 11.7571 39.2358 11.6914C39.2972 11.6257 39.3708 11.5727 39.4526 11.5356C39.5343 11.4984 39.6226 11.4778 39.7123 11.4748C39.802 11.4718 39.8914 11.4866 39.9754 11.5183C40.0595 11.55 40.1364 11.5979 40.202 11.6595C40.2675 11.721 40.3203 11.7948 40.3573 11.8768L47.853 28.441C47.9001 28.5451 47.9205 28.6594 47.9122 28.7734C47.904 28.8874 47.8675 28.9976 47.8059 29.0938C47.7444 29.1901 47.6598 29.2693 47.5599 29.3244C47.46 29.3795 47.3479 29.4086 47.2339 29.4092Z" fill="#D0A144"/>
<path d="M38.4747 38.149H38.3325C32.861 38.149 28.8893 34.1858 28.8893 28.7246C28.8893 28.5429 28.9613 28.3686 29.0895 28.2401C29.2176 28.1116 29.3915 28.0394 29.5727 28.0394H47.2339C47.4151 28.0394 47.5889 28.1116 47.7171 28.2401C47.8452 28.3686 47.9172 28.5429 47.9172 28.7246C47.9172 34.1892 43.9456 38.149 38.4747 38.149ZM30.28 29.4098C30.5847 33.7829 33.8095 36.7786 38.3325 36.7786H38.4747C42.9971 36.7786 46.2225 33.7829 46.5266 29.4098H30.28Z" fill="#D0A144"/>
<path d="M38.4036 13.2056C37.7391 13.2057 37.0895 13.0083 36.537 12.6382C35.9845 12.2681 35.5538 11.742 35.2994 11.1265C35.0451 10.5109 34.9785 9.8336 35.1081 9.18012C35.2377 8.52663 35.5577 7.92636 36.0275 7.45523C36.4974 6.9841 37.096 6.66327 37.7477 6.53332C38.3994 6.40337 39.0749 6.47013 39.6888 6.72517C40.3027 6.98021 40.8273 7.41206 41.1964 7.96611C41.5655 8.52016 41.7624 9.17151 41.7623 9.83779C41.7612 10.7307 41.407 11.5866 40.7773 12.218C40.1477 12.8493 39.294 13.2045 38.4036 13.2056ZM38.4036 7.83973C38.0095 7.83959 37.6241 7.95666 37.2964 8.17613C36.9686 8.3956 36.7131 8.7076 36.5622 9.07269C36.4112 9.43778 36.3717 9.83954 36.4485 10.2272C36.5253 10.6148 36.715 10.9709 36.9937 11.2504C37.2723 11.5299 37.6274 11.7203 38.0139 11.7974C38.4005 11.8746 38.8012 11.835 39.1653 11.6838C39.5295 11.5326 39.8407 11.2765 40.0597 10.9479C40.2787 10.6193 40.3956 10.233 40.3956 9.83779C40.395 9.30816 40.185 8.80036 39.8116 8.42579C39.4381 8.05122 38.9318 7.84045 38.4036 7.83973Z" fill="#D0A144"/>
<path d="M18.4239 29.4093H0.766108C0.651772 29.4093 0.539271 29.3805 0.438911 29.3255C0.33855 29.2706 0.253539 29.1913 0.191662 29.0949C0.129786 28.9985 0.0930237 28.8881 0.0847419 28.7737C0.0764602 28.6594 0.096924 28.5448 0.144259 28.4404L7.64881 11.8762C7.72375 11.7107 7.86121 11.5818 8.03095 11.5178C8.20069 11.4539 8.3888 11.4602 8.55391 11.5354C8.71901 11.6105 8.84758 11.7483 8.91134 11.9185C8.9751 12.0887 8.96881 12.2774 8.89387 12.4429L1.8294 28.0389H17.364L10.3057 12.4429C10.2664 12.3607 10.2439 12.2714 10.2395 12.1804C10.2351 12.0893 10.2489 11.9983 10.28 11.9126C10.3111 11.827 10.359 11.7484 10.4207 11.6815C10.4825 11.6146 10.557 11.5608 10.6398 11.5231C10.7226 11.4855 10.812 11.4647 10.9029 11.4622C10.9938 11.4596 11.0843 11.4753 11.1691 11.5082C11.2538 11.5412 11.3312 11.5908 11.3966 11.6541C11.462 11.7174 11.5142 11.7932 11.5501 11.8769L19.0464 28.4411C19.0936 28.5455 19.114 28.6601 19.1056 28.7744C19.0972 28.8887 19.0603 28.9991 18.9984 29.0954C18.9364 29.1917 18.8514 29.2709 18.751 29.3258C18.6507 29.3806 18.5382 29.4093 18.4239 29.4093Z" fill="#D0A144"/>
<path d="M9.66743 38.149H9.52529C4.05439 38.149 0.0827637 34.1892 0.0827637 28.7246C0.0827637 28.5429 0.154759 28.3686 0.282912 28.2401C0.411065 28.1116 0.584878 28.0394 0.766114 28.0394H18.4273C18.6085 28.0394 18.7823 28.1116 18.9105 28.2401C19.0387 28.3686 19.1106 28.5429 19.1106 28.7246C19.1106 34.1892 15.139 38.149 9.66743 38.149ZM1.47338 29.4098C1.77747 33.7829 5.00288 36.7786 9.52529 36.7786H9.66743C14.1905 36.7786 17.4153 33.7829 17.72 29.4098H1.47338Z" fill="#D0A144"/>
<path d="M9.59635 13.2056C8.9319 13.2056 8.28238 13.008 7.72992 12.6378C7.17747 12.2677 6.74689 11.7416 6.49265 11.126C6.23841 10.5105 6.17192 9.83314 6.3016 9.1797C6.43128 8.52626 6.75129 7.92605 7.22117 7.45499C7.69105 6.98393 8.2897 6.66317 8.94139 6.53327C9.59309 6.40337 10.2686 6.47018 10.8824 6.72524C11.4962 6.98029 12.0208 7.41215 12.3899 7.96618C12.7589 8.52021 12.9558 9.17154 12.9557 9.83779C12.9546 10.7308 12.6003 11.5869 11.9705 12.2182C11.3407 12.8496 10.4869 13.2047 9.59635 13.2056ZM9.59635 7.83973C9.20224 7.83973 8.81698 7.95691 8.48929 8.17646C8.1616 8.39601 7.9062 8.70807 7.75538 9.07317C7.60456 9.43826 7.5651 9.84001 7.64199 10.2276C7.71888 10.6152 7.90866 10.9712 8.18733 11.2506C8.46601 11.5301 8.82107 11.7204 9.2076 11.7975C9.59414 11.8746 9.99479 11.835 10.3589 11.6838C10.723 11.5325 11.0342 11.2764 11.2532 10.9479C11.4721 10.6193 11.589 10.233 11.589 9.83779C11.5885 9.30804 11.3783 8.80014 11.0048 8.42555C10.6312 8.05096 10.1247 7.84027 9.59635 7.83973Z" fill="#D0A144"/>
</svg>
